%TF.GenerationSoftware,KiCad,Pcbnew,(5.1.7-0-10_14)*%
%TF.CreationDate,2021-06-29T16:16:18+02:00*%
%TF.ProjectId,NodeMCU32_Multisensor,4e6f6465-4d43-4553-9332-5f4d756c7469,rev?*%
%TF.SameCoordinates,Original*%
%TF.FileFunction,Soldermask,Bot*%
%TF.FilePolarity,Negative*%
%FSLAX46Y46*%
G04 Gerber Fmt 4.6, Leading zero omitted, Abs format (unit mm)*
G04 Created by KiCad (PCBNEW (5.1.7-0-10_14)) date 2021-06-29 16:16:18*
%MOMM*%
%LPD*%
G01*
G04 APERTURE LIST*
%ADD10O,3.200000X2.200000*%
%ADD11C,0.800000*%
%ADD12C,6.400000*%
%ADD13O,1.600000X1.600000*%
%ADD14C,1.600000*%
%ADD15O,1.700000X1.700000*%
%ADD16R,1.700000X1.700000*%
%ADD17O,2.200000X3.200000*%
%ADD18C,1.530000*%
%ADD19C,1.560000*%
%ADD20R,1.560000X1.560000*%
%ADD21R,1.050000X1.500000*%
%ADD22O,1.050000X1.500000*%
%ADD23C,1.980000*%
%ADD24C,1.935000*%
%ADD25R,1.980000X1.980000*%
%ADD26C,1.416000*%
%ADD27R,1.416000X1.416000*%
%ADD28O,2.200000X2.200000*%
%ADD29R,2.200000X2.200000*%
%ADD30C,1.800000*%
%ADD31R,1.800000X1.800000*%
%ADD32R,1.600000X1.600000*%
%ADD33C,2.000000*%
%ADD34R,2.000000X2.000000*%
G04 APERTURE END LIST*
D10*
%TO.C,J7*%
X150087000Y-86825000D03*
X150087000Y-91825000D03*
X150087000Y-96825000D03*
X150087000Y-76825000D03*
X150087000Y-81825000D03*
%TD*%
D11*
%TO.C,H4*%
X70404056Y-113745944D03*
X68707000Y-113043000D03*
X67009944Y-113745944D03*
X66307000Y-115443000D03*
X67009944Y-117140056D03*
X68707000Y-117843000D03*
X70404056Y-117140056D03*
X71107000Y-115443000D03*
D12*
X68707000Y-115443000D03*
%TD*%
D11*
%TO.C,H3*%
X70404056Y-64088944D03*
X68707000Y-63386000D03*
X67009944Y-64088944D03*
X66307000Y-65786000D03*
X67009944Y-67483056D03*
X68707000Y-68186000D03*
X70404056Y-67483056D03*
X71107000Y-65786000D03*
D12*
X68707000Y-65786000D03*
%TD*%
D11*
%TO.C,H2*%
X128443056Y-113745944D03*
X126746000Y-113043000D03*
X125048944Y-113745944D03*
X124346000Y-115443000D03*
X125048944Y-117140056D03*
X126746000Y-117843000D03*
X128443056Y-117140056D03*
X129146000Y-115443000D03*
D12*
X126746000Y-115443000D03*
%TD*%
D11*
%TO.C,H1*%
X150668056Y-64088944D03*
X148971000Y-63386000D03*
X147273944Y-64088944D03*
X146571000Y-65786000D03*
X147273944Y-67483056D03*
X148971000Y-68186000D03*
X150668056Y-67483056D03*
X151371000Y-65786000D03*
D12*
X148971000Y-65786000D03*
%TD*%
D13*
%TO.C,R11*%
X150622000Y-108585000D03*
D14*
X150622000Y-100965000D03*
%TD*%
D13*
%TO.C,R10*%
X146685000Y-100965000D03*
D14*
X146685000Y-108585000D03*
%TD*%
D13*
%TO.C,R9*%
X113284000Y-101600000D03*
D14*
X105664000Y-101600000D03*
%TD*%
D15*
%TO.C,J8*%
X142875000Y-62103000D03*
X142875000Y-64643000D03*
X142875000Y-67183000D03*
D16*
X142875000Y-69723000D03*
%TD*%
D17*
%TO.C,J2*%
X139813000Y-115316000D03*
X144813000Y-115316000D03*
X149813000Y-115316000D03*
%TD*%
D18*
%TO.C,U2*%
X68072000Y-79629000D03*
X68072000Y-87249000D03*
X68072000Y-84709000D03*
X68072000Y-82169000D03*
%TD*%
D19*
%TO.C,U1*%
X74930000Y-62432000D03*
X74930000Y-64972000D03*
X74930000Y-67512000D03*
X74930000Y-70052000D03*
X74930000Y-72592000D03*
X74930000Y-75132000D03*
X74930000Y-77672000D03*
X74930000Y-80212000D03*
X74930000Y-82752000D03*
X74930000Y-85292000D03*
X74930000Y-87832000D03*
X74930000Y-90372000D03*
X74930000Y-92912000D03*
X74930000Y-95452000D03*
X74930000Y-97992000D03*
X74930000Y-100532000D03*
X74930000Y-103072000D03*
X74930000Y-105612000D03*
X74930000Y-108152000D03*
X100330000Y-64972000D03*
X100330000Y-67512000D03*
X100330000Y-70052000D03*
X100330000Y-72592000D03*
X100330000Y-75132000D03*
X100330000Y-77672000D03*
X100330000Y-80212000D03*
X100330000Y-82752000D03*
X100330000Y-85292000D03*
X100330000Y-87832000D03*
X100330000Y-90372000D03*
X100330000Y-92912000D03*
X100330000Y-95452000D03*
X100330000Y-97992000D03*
X100330000Y-100532000D03*
X100330000Y-103072000D03*
X100330000Y-62432000D03*
X100330000Y-105612000D03*
D20*
X100330000Y-108152000D03*
%TD*%
D13*
%TO.C,R8*%
X113284000Y-83312000D03*
D14*
X105664000Y-83312000D03*
%TD*%
D13*
%TO.C,R7*%
X141556000Y-82680000D03*
D14*
X141556000Y-90300000D03*
%TD*%
D13*
%TO.C,R6*%
X137668000Y-90297000D03*
D14*
X137668000Y-82677000D03*
%TD*%
D13*
%TO.C,R5*%
X137795000Y-101854000D03*
D14*
X137795000Y-94234000D03*
%TD*%
%TO.C,R4*%
X139954000Y-108537000D03*
X139954000Y-105537000D03*
%TD*%
D13*
%TO.C,R3*%
X105664000Y-95504000D03*
D14*
X113284000Y-95504000D03*
%TD*%
D13*
%TO.C,R2*%
X105664000Y-89408000D03*
D14*
X113284000Y-89408000D03*
%TD*%
D13*
%TO.C,R1*%
X138430000Y-69850000D03*
D14*
X138430000Y-62230000D03*
%TD*%
D21*
%TO.C,Q1*%
X114808000Y-76200000D03*
D22*
X112268000Y-76200000D03*
X113538000Y-76200000D03*
%TD*%
D23*
%TO.C,K1*%
X132238000Y-89158000D03*
X120238000Y-89158000D03*
X120238000Y-76958000D03*
D24*
X126238000Y-74958000D03*
D25*
X132238000Y-76958000D03*
%TD*%
D17*
%TO.C,J6*%
X108618000Y-66040000D03*
X113618000Y-66040000D03*
%TD*%
%TO.C,J5*%
X124808000Y-66040000D03*
X119808000Y-66040000D03*
%TD*%
D15*
%TO.C,J4*%
X141605000Y-94742000D03*
X141605000Y-97282000D03*
D16*
X141605000Y-99822000D03*
%TD*%
D15*
%TO.C,J3*%
X58928000Y-114046000D03*
X56388000Y-114046000D03*
D16*
X53848000Y-114046000D03*
%TD*%
D26*
%TO.C,J1*%
X122548000Y-100584000D03*
X125048000Y-100584000D03*
X127548000Y-100584000D03*
D27*
X130048000Y-100584000D03*
%TD*%
D28*
%TO.C,D3*%
X130810000Y-71120000D03*
D29*
X130810000Y-60960000D03*
%TD*%
D28*
%TO.C,D2*%
X134620000Y-71120000D03*
D29*
X134620000Y-60960000D03*
%TD*%
D30*
%TO.C,D1*%
X139700000Y-78232000D03*
D31*
X139700000Y-75692000D03*
%TD*%
D14*
%TO.C,C1*%
X104434000Y-76200000D03*
D32*
X106934000Y-76200000D03*
%TD*%
D33*
%TO.C,BZ1*%
X113391000Y-112395000D03*
D34*
X105791000Y-112395000D03*
%TD*%
M02*
