%TF.GenerationSoftware,KiCad,Pcbnew,(5.1.7-0-10_14)*%
%TF.CreationDate,2021-06-29T16:16:18+02:00*%
%TF.ProjectId,NodeMCU32_Multisensor,4e6f6465-4d43-4553-9332-5f4d756c7469,rev?*%
%TF.SameCoordinates,Original*%
%TF.FileFunction,Legend,Top*%
%TF.FilePolarity,Positive*%
%FSLAX46Y46*%
G04 Gerber Fmt 4.6, Leading zero omitted, Abs format (unit mm)*
G04 Created by KiCad (PCBNEW (5.1.7-0-10_14)) date 2021-06-29 16:16:18*
%MOMM*%
%LPD*%
G01*
G04 APERTURE LIST*
%ADD10C,0.120000*%
%ADD11C,0.127000*%
%ADD12C,0.300000*%
%ADD13C,0.100000*%
%ADD14C,0.150000*%
%ADD15C,0.015000*%
%ADD16C,0.254000*%
G04 APERTURE END LIST*
D10*
%TO.C,J7*%
X145187000Y-76825000D02*
X145187000Y-74325000D01*
X145187000Y-74325000D02*
X154987000Y-74325000D01*
X154987000Y-74325000D02*
X154987000Y-76925000D01*
X154987000Y-99325000D02*
X145187000Y-99325000D01*
X154987000Y-76925000D02*
X154987000Y-99325000D01*
X145187000Y-99325000D02*
X145187000Y-76825000D01*
%TO.C,R11*%
X149252000Y-108045000D02*
X149582000Y-108045000D01*
X149252000Y-101505000D02*
X149252000Y-108045000D01*
X149582000Y-101505000D02*
X149252000Y-101505000D01*
X151992000Y-108045000D02*
X151662000Y-108045000D01*
X151992000Y-101505000D02*
X151992000Y-108045000D01*
X151662000Y-101505000D02*
X151992000Y-101505000D01*
%TO.C,R10*%
X148055000Y-101505000D02*
X147725000Y-101505000D01*
X148055000Y-108045000D02*
X148055000Y-101505000D01*
X147725000Y-108045000D02*
X148055000Y-108045000D01*
X145315000Y-101505000D02*
X145645000Y-101505000D01*
X145315000Y-108045000D02*
X145315000Y-101505000D01*
X145645000Y-108045000D02*
X145315000Y-108045000D01*
%TO.C,R9*%
X112744000Y-102970000D02*
X112744000Y-102640000D01*
X106204000Y-102970000D02*
X112744000Y-102970000D01*
X106204000Y-102640000D02*
X106204000Y-102970000D01*
X112744000Y-100230000D02*
X112744000Y-100560000D01*
X106204000Y-100230000D02*
X112744000Y-100230000D01*
X106204000Y-100560000D02*
X106204000Y-100230000D01*
%TO.C,J8*%
X144205000Y-71053000D02*
X142875000Y-71053000D01*
X144205000Y-69723000D02*
X144205000Y-71053000D01*
X144205000Y-68453000D02*
X141545000Y-68453000D01*
X141545000Y-68453000D02*
X141545000Y-60773000D01*
X144205000Y-68453000D02*
X144205000Y-60773000D01*
X144205000Y-60773000D02*
X141545000Y-60773000D01*
%TO.C,J2*%
X137313000Y-110416000D02*
X149813000Y-110416000D01*
X149713000Y-120216000D02*
X137313000Y-120216000D01*
X137313000Y-120216000D02*
X137313000Y-110416000D01*
X137313000Y-115316000D02*
X137313000Y-120216000D01*
X152313000Y-120216000D02*
X149713000Y-120216000D01*
X152313000Y-110416000D02*
X152313000Y-120216000D01*
X149813000Y-110416000D02*
X152313000Y-110416000D01*
D11*
%TO.C,U2*%
X48802000Y-61939000D02*
X48802000Y-77939000D01*
X48802000Y-88939000D02*
X48802000Y-104939000D01*
X62602000Y-105939000D02*
X62602000Y-104939000D01*
X62602000Y-104939000D02*
X62602000Y-88939000D01*
X62602000Y-88939000D02*
X62602000Y-77939000D01*
X62602000Y-77939000D02*
X62602000Y-61939000D01*
X62602000Y-61939000D02*
X62602000Y-60939000D01*
X62602000Y-60939000D02*
X63802000Y-60939000D01*
X63802000Y-60939000D02*
X63802000Y-105939000D01*
X63802000Y-105939000D02*
X62602000Y-105939000D01*
X62602000Y-61939000D02*
X48802000Y-61939000D01*
X62602000Y-104939000D02*
X48802000Y-104939000D01*
X62602000Y-77939000D02*
X48802000Y-77939000D01*
X62602000Y-88939000D02*
X48802000Y-88939000D01*
%TO.C,U1*%
X101580000Y-61142000D02*
X101580000Y-115542000D01*
X101580000Y-115542000D02*
X73680000Y-115542000D01*
X73680000Y-115542000D02*
X73680000Y-61142000D01*
X73680000Y-61142000D02*
X101580000Y-61142000D01*
D10*
%TO.C,R8*%
X106204000Y-82272000D02*
X106204000Y-81942000D01*
X106204000Y-81942000D02*
X112744000Y-81942000D01*
X112744000Y-81942000D02*
X112744000Y-82272000D01*
X106204000Y-84352000D02*
X106204000Y-84682000D01*
X106204000Y-84682000D02*
X112744000Y-84682000D01*
X112744000Y-84682000D02*
X112744000Y-84352000D01*
%TO.C,R7*%
X140516000Y-89760000D02*
X140186000Y-89760000D01*
X140186000Y-89760000D02*
X140186000Y-83220000D01*
X140186000Y-83220000D02*
X140516000Y-83220000D01*
X142596000Y-89760000D02*
X142926000Y-89760000D01*
X142926000Y-89760000D02*
X142926000Y-83220000D01*
X142926000Y-83220000D02*
X142596000Y-83220000D01*
%TO.C,R6*%
X138708000Y-83217000D02*
X139038000Y-83217000D01*
X139038000Y-83217000D02*
X139038000Y-89757000D01*
X139038000Y-89757000D02*
X138708000Y-89757000D01*
X136628000Y-83217000D02*
X136298000Y-83217000D01*
X136298000Y-83217000D02*
X136298000Y-89757000D01*
X136298000Y-89757000D02*
X136628000Y-89757000D01*
%TO.C,R5*%
X138835000Y-94774000D02*
X139165000Y-94774000D01*
X139165000Y-94774000D02*
X139165000Y-101314000D01*
X139165000Y-101314000D02*
X138835000Y-101314000D01*
X136755000Y-94774000D02*
X136425000Y-94774000D01*
X136425000Y-94774000D02*
X136425000Y-101314000D01*
X136425000Y-101314000D02*
X136755000Y-101314000D01*
%TO.C,R4*%
X137854000Y-105637000D02*
X137854000Y-108437000D01*
X142054000Y-105637000D02*
X142054000Y-108437000D01*
X142063242Y-105650963D02*
G75*
G03*
X137854000Y-105637000I-2109242J-1386037D01*
G01*
X137844758Y-108423037D02*
G75*
G03*
X142054000Y-108437000I2109242J1386037D01*
G01*
%TO.C,R3*%
X112744000Y-96544000D02*
X112744000Y-96874000D01*
X112744000Y-96874000D02*
X106204000Y-96874000D01*
X106204000Y-96874000D02*
X106204000Y-96544000D01*
X112744000Y-94464000D02*
X112744000Y-94134000D01*
X112744000Y-94134000D02*
X106204000Y-94134000D01*
X106204000Y-94134000D02*
X106204000Y-94464000D01*
%TO.C,R2*%
X112744000Y-90448000D02*
X112744000Y-90778000D01*
X112744000Y-90778000D02*
X106204000Y-90778000D01*
X106204000Y-90778000D02*
X106204000Y-90448000D01*
X112744000Y-88368000D02*
X112744000Y-88038000D01*
X112744000Y-88038000D02*
X106204000Y-88038000D01*
X106204000Y-88038000D02*
X106204000Y-88368000D01*
%TO.C,R1*%
X139470000Y-62770000D02*
X139800000Y-62770000D01*
X139800000Y-62770000D02*
X139800000Y-69310000D01*
X139800000Y-69310000D02*
X139470000Y-69310000D01*
X137390000Y-62770000D02*
X137060000Y-62770000D01*
X137060000Y-62770000D02*
X137060000Y-69310000D01*
X137060000Y-69310000D02*
X137390000Y-69310000D01*
%TO.C,Q1*%
X115338000Y-74350000D02*
X111738000Y-74350000D01*
X111699522Y-74361522D02*
G75*
G03*
X113538000Y-78800000I1838478J-1838478D01*
G01*
X115376478Y-74361522D02*
G75*
G02*
X113538000Y-78800000I-1838478J-1838478D01*
G01*
D11*
%TO.C,K1*%
X118488000Y-73508000D02*
X133988000Y-73508000D01*
X133988000Y-73508000D02*
X133988000Y-92608000D01*
X133988000Y-92608000D02*
X118488000Y-92608000D01*
X118488000Y-92608000D02*
X118488000Y-73508000D01*
D12*
X132457000Y-72858000D02*
G75*
G03*
X132457000Y-72858000I-100000J0D01*
G01*
D10*
%TO.C,J6*%
X116118000Y-70940000D02*
X113518000Y-70940000D01*
X116118000Y-61140000D02*
X116118000Y-70940000D01*
X113618000Y-61140000D02*
X116118000Y-61140000D01*
X106118000Y-66040000D02*
X106118000Y-70940000D01*
X106118000Y-70940000D02*
X106118000Y-61140000D01*
X113518000Y-70940000D02*
X106118000Y-70940000D01*
X106118000Y-61140000D02*
X113618000Y-61140000D01*
%TO.C,J5*%
X117308000Y-61140000D02*
X119908000Y-61140000D01*
X117308000Y-70940000D02*
X117308000Y-61140000D01*
X119808000Y-70940000D02*
X117308000Y-70940000D01*
X127308000Y-66040000D02*
X127308000Y-61140000D01*
X127308000Y-61140000D02*
X127308000Y-70940000D01*
X119908000Y-61140000D02*
X127308000Y-61140000D01*
X127308000Y-70940000D02*
X119808000Y-70940000D01*
%TO.C,J4*%
X142935000Y-93412000D02*
X140275000Y-93412000D01*
X142935000Y-98552000D02*
X142935000Y-93412000D01*
X140275000Y-98552000D02*
X140275000Y-93412000D01*
X142935000Y-98552000D02*
X140275000Y-98552000D01*
X142935000Y-99822000D02*
X142935000Y-101152000D01*
X142935000Y-101152000D02*
X141605000Y-101152000D01*
%TO.C,J3*%
X60258000Y-115376000D02*
X60258000Y-112716000D01*
X55118000Y-115376000D02*
X60258000Y-115376000D01*
X55118000Y-112716000D02*
X60258000Y-112716000D01*
X55118000Y-115376000D02*
X55118000Y-112716000D01*
X53848000Y-115376000D02*
X52518000Y-115376000D01*
X52518000Y-115376000D02*
X52518000Y-114046000D01*
D13*
%TO.C,J1*%
X118748000Y-102584000D02*
X118748000Y-94884000D01*
X118748000Y-102584000D02*
X118748000Y-102584000D01*
X118748000Y-94884000D02*
X118748000Y-102584000D01*
X118748000Y-94884000D02*
X118748000Y-94884000D01*
X133848000Y-94884000D02*
X133848000Y-102584000D01*
X133848000Y-94884000D02*
X133848000Y-94884000D01*
X133848000Y-102584000D02*
X133848000Y-94884000D01*
X133848000Y-102584000D02*
X133848000Y-102584000D01*
X118748000Y-102584000D02*
X118748000Y-102584000D01*
X121298000Y-102584000D02*
X118748000Y-102584000D01*
X121298000Y-102584000D02*
X121298000Y-102584000D01*
X118748000Y-102584000D02*
X121298000Y-102584000D01*
X133848000Y-94884000D02*
X133848000Y-94884000D01*
X118748000Y-94884000D02*
X133848000Y-94884000D01*
X118748000Y-94884000D02*
X118748000Y-94884000D01*
X133848000Y-94884000D02*
X118748000Y-94884000D01*
X131298000Y-102584000D02*
X131298000Y-102584000D01*
X133848000Y-102584000D02*
X131298000Y-102584000D01*
X133848000Y-102584000D02*
X133848000Y-102584000D01*
X131298000Y-102584000D02*
X133848000Y-102584000D01*
D10*
%TO.C,D3*%
X132280000Y-63320000D02*
X129340000Y-63320000D01*
X129340000Y-63320000D02*
X129340000Y-68760000D01*
X129340000Y-68760000D02*
X132280000Y-68760000D01*
X132280000Y-68760000D02*
X132280000Y-63320000D01*
X130810000Y-62300000D02*
X130810000Y-63320000D01*
X130810000Y-69780000D02*
X130810000Y-68760000D01*
X132280000Y-64220000D02*
X129340000Y-64220000D01*
X132280000Y-64340000D02*
X129340000Y-64340000D01*
X132280000Y-64100000D02*
X129340000Y-64100000D01*
%TO.C,D2*%
X136090000Y-63320000D02*
X133150000Y-63320000D01*
X133150000Y-63320000D02*
X133150000Y-68760000D01*
X133150000Y-68760000D02*
X136090000Y-68760000D01*
X136090000Y-68760000D02*
X136090000Y-63320000D01*
X134620000Y-62300000D02*
X134620000Y-63320000D01*
X134620000Y-69780000D02*
X134620000Y-68760000D01*
X136090000Y-64220000D02*
X133150000Y-64220000D01*
X136090000Y-64340000D02*
X133150000Y-64340000D01*
X136090000Y-64100000D02*
X133150000Y-64100000D01*
%TO.C,D1*%
X142200000Y-76962000D02*
G75*
G03*
X142200000Y-76962000I-2500000J0D01*
G01*
X141245000Y-74402000D02*
X138155000Y-74402000D01*
X139700462Y-79952000D02*
G75*
G02*
X138155170Y-74402000I-462J2990000D01*
G01*
X139699538Y-79952000D02*
G75*
G03*
X141244830Y-74402000I462J2990000D01*
G01*
%TO.C,C1*%
X108954000Y-76200000D02*
G75*
G03*
X108954000Y-76200000I-3270000J0D01*
G01*
X105684000Y-79430000D02*
X105684000Y-72970000D01*
X105644000Y-79430000D02*
X105644000Y-72970000D01*
X105604000Y-79430000D02*
X105604000Y-72970000D01*
X105564000Y-79428000D02*
X105564000Y-72972000D01*
X105524000Y-79427000D02*
X105524000Y-72973000D01*
X105484000Y-79424000D02*
X105484000Y-72976000D01*
X105444000Y-79422000D02*
X105444000Y-77240000D01*
X105444000Y-75160000D02*
X105444000Y-72978000D01*
X105404000Y-79418000D02*
X105404000Y-77240000D01*
X105404000Y-75160000D02*
X105404000Y-72982000D01*
X105364000Y-79415000D02*
X105364000Y-77240000D01*
X105364000Y-75160000D02*
X105364000Y-72985000D01*
X105324000Y-79411000D02*
X105324000Y-77240000D01*
X105324000Y-75160000D02*
X105324000Y-72989000D01*
X105284000Y-79406000D02*
X105284000Y-77240000D01*
X105284000Y-75160000D02*
X105284000Y-72994000D01*
X105244000Y-79401000D02*
X105244000Y-77240000D01*
X105244000Y-75160000D02*
X105244000Y-72999000D01*
X105204000Y-79395000D02*
X105204000Y-77240000D01*
X105204000Y-75160000D02*
X105204000Y-73005000D01*
X105164000Y-79389000D02*
X105164000Y-77240000D01*
X105164000Y-75160000D02*
X105164000Y-73011000D01*
X105124000Y-79382000D02*
X105124000Y-77240000D01*
X105124000Y-75160000D02*
X105124000Y-73018000D01*
X105084000Y-79375000D02*
X105084000Y-77240000D01*
X105084000Y-75160000D02*
X105084000Y-73025000D01*
X105044000Y-79367000D02*
X105044000Y-77240000D01*
X105044000Y-75160000D02*
X105044000Y-73033000D01*
X105004000Y-79359000D02*
X105004000Y-77240000D01*
X105004000Y-75160000D02*
X105004000Y-73041000D01*
X104963000Y-79350000D02*
X104963000Y-77240000D01*
X104963000Y-75160000D02*
X104963000Y-73050000D01*
X104923000Y-79341000D02*
X104923000Y-77240000D01*
X104923000Y-75160000D02*
X104923000Y-73059000D01*
X104883000Y-79331000D02*
X104883000Y-77240000D01*
X104883000Y-75160000D02*
X104883000Y-73069000D01*
X104843000Y-79321000D02*
X104843000Y-77240000D01*
X104843000Y-75160000D02*
X104843000Y-73079000D01*
X104803000Y-79310000D02*
X104803000Y-77240000D01*
X104803000Y-75160000D02*
X104803000Y-73090000D01*
X104763000Y-79298000D02*
X104763000Y-77240000D01*
X104763000Y-75160000D02*
X104763000Y-73102000D01*
X104723000Y-79286000D02*
X104723000Y-77240000D01*
X104723000Y-75160000D02*
X104723000Y-73114000D01*
X104683000Y-79274000D02*
X104683000Y-77240000D01*
X104683000Y-75160000D02*
X104683000Y-73126000D01*
X104643000Y-79261000D02*
X104643000Y-77240000D01*
X104643000Y-75160000D02*
X104643000Y-73139000D01*
X104603000Y-79247000D02*
X104603000Y-77240000D01*
X104603000Y-75160000D02*
X104603000Y-73153000D01*
X104563000Y-79233000D02*
X104563000Y-77240000D01*
X104563000Y-75160000D02*
X104563000Y-73167000D01*
X104523000Y-79218000D02*
X104523000Y-77240000D01*
X104523000Y-75160000D02*
X104523000Y-73182000D01*
X104483000Y-79202000D02*
X104483000Y-77240000D01*
X104483000Y-75160000D02*
X104483000Y-73198000D01*
X104443000Y-79186000D02*
X104443000Y-77240000D01*
X104443000Y-75160000D02*
X104443000Y-73214000D01*
X104403000Y-79170000D02*
X104403000Y-77240000D01*
X104403000Y-75160000D02*
X104403000Y-73230000D01*
X104363000Y-79152000D02*
X104363000Y-77240000D01*
X104363000Y-75160000D02*
X104363000Y-73248000D01*
X104323000Y-79134000D02*
X104323000Y-77240000D01*
X104323000Y-75160000D02*
X104323000Y-73266000D01*
X104283000Y-79116000D02*
X104283000Y-77240000D01*
X104283000Y-75160000D02*
X104283000Y-73284000D01*
X104243000Y-79096000D02*
X104243000Y-77240000D01*
X104243000Y-75160000D02*
X104243000Y-73304000D01*
X104203000Y-79076000D02*
X104203000Y-77240000D01*
X104203000Y-75160000D02*
X104203000Y-73324000D01*
X104163000Y-79056000D02*
X104163000Y-77240000D01*
X104163000Y-75160000D02*
X104163000Y-73344000D01*
X104123000Y-79034000D02*
X104123000Y-77240000D01*
X104123000Y-75160000D02*
X104123000Y-73366000D01*
X104083000Y-79012000D02*
X104083000Y-77240000D01*
X104083000Y-75160000D02*
X104083000Y-73388000D01*
X104043000Y-78990000D02*
X104043000Y-77240000D01*
X104043000Y-75160000D02*
X104043000Y-73410000D01*
X104003000Y-78966000D02*
X104003000Y-77240000D01*
X104003000Y-75160000D02*
X104003000Y-73434000D01*
X103963000Y-78942000D02*
X103963000Y-77240000D01*
X103963000Y-75160000D02*
X103963000Y-73458000D01*
X103923000Y-78916000D02*
X103923000Y-77240000D01*
X103923000Y-75160000D02*
X103923000Y-73484000D01*
X103883000Y-78890000D02*
X103883000Y-77240000D01*
X103883000Y-75160000D02*
X103883000Y-73510000D01*
X103843000Y-78864000D02*
X103843000Y-77240000D01*
X103843000Y-75160000D02*
X103843000Y-73536000D01*
X103803000Y-78836000D02*
X103803000Y-77240000D01*
X103803000Y-75160000D02*
X103803000Y-73564000D01*
X103763000Y-78807000D02*
X103763000Y-77240000D01*
X103763000Y-75160000D02*
X103763000Y-73593000D01*
X103723000Y-78778000D02*
X103723000Y-77240000D01*
X103723000Y-75160000D02*
X103723000Y-73622000D01*
X103683000Y-78748000D02*
X103683000Y-77240000D01*
X103683000Y-75160000D02*
X103683000Y-73652000D01*
X103643000Y-78716000D02*
X103643000Y-77240000D01*
X103643000Y-75160000D02*
X103643000Y-73684000D01*
X103603000Y-78684000D02*
X103603000Y-77240000D01*
X103603000Y-75160000D02*
X103603000Y-73716000D01*
X103563000Y-78650000D02*
X103563000Y-77240000D01*
X103563000Y-75160000D02*
X103563000Y-73750000D01*
X103523000Y-78616000D02*
X103523000Y-77240000D01*
X103523000Y-75160000D02*
X103523000Y-73784000D01*
X103483000Y-78580000D02*
X103483000Y-77240000D01*
X103483000Y-75160000D02*
X103483000Y-73820000D01*
X103443000Y-78543000D02*
X103443000Y-77240000D01*
X103443000Y-75160000D02*
X103443000Y-73857000D01*
X103403000Y-78505000D02*
X103403000Y-77240000D01*
X103403000Y-75160000D02*
X103403000Y-73895000D01*
X103363000Y-78465000D02*
X103363000Y-73935000D01*
X103323000Y-78424000D02*
X103323000Y-73976000D01*
X103283000Y-78382000D02*
X103283000Y-74018000D01*
X103243000Y-78337000D02*
X103243000Y-74063000D01*
X103203000Y-78292000D02*
X103203000Y-74108000D01*
X103163000Y-78244000D02*
X103163000Y-74156000D01*
X103123000Y-78195000D02*
X103123000Y-74205000D01*
X103083000Y-78144000D02*
X103083000Y-74256000D01*
X103043000Y-78090000D02*
X103043000Y-74310000D01*
X103003000Y-78034000D02*
X103003000Y-74366000D01*
X102963000Y-77976000D02*
X102963000Y-74424000D01*
X102923000Y-77914000D02*
X102923000Y-74486000D01*
X102883000Y-77850000D02*
X102883000Y-74550000D01*
X102843000Y-77781000D02*
X102843000Y-74619000D01*
X102803000Y-77709000D02*
X102803000Y-74691000D01*
X102763000Y-77632000D02*
X102763000Y-74768000D01*
X102723000Y-77550000D02*
X102723000Y-74850000D01*
X102683000Y-77462000D02*
X102683000Y-74938000D01*
X102643000Y-77365000D02*
X102643000Y-75035000D01*
X102603000Y-77259000D02*
X102603000Y-75141000D01*
X102563000Y-77140000D02*
X102563000Y-75260000D01*
X102523000Y-77002000D02*
X102523000Y-75398000D01*
X102483000Y-76833000D02*
X102483000Y-75567000D01*
X102443000Y-76602000D02*
X102443000Y-75798000D01*
X109184241Y-78039000D02*
X108554241Y-78039000D01*
X108869241Y-78354000D02*
X108869241Y-77724000D01*
%TO.C,BZ1*%
X115691000Y-112395000D02*
G75*
G03*
X115691000Y-112395000I-6100000J0D01*
G01*
%TO.C,J7*%
D14*
X149653666Y-72977380D02*
X149653666Y-73691666D01*
X149606047Y-73834523D01*
X149510809Y-73929761D01*
X149367952Y-73977380D01*
X149272714Y-73977380D01*
X150034619Y-72977380D02*
X150701285Y-72977380D01*
X150272714Y-73977380D01*
%TO.C,H4*%
X67945095Y-111695380D02*
X67945095Y-110695380D01*
X67945095Y-111171571D02*
X68516523Y-111171571D01*
X68516523Y-111695380D02*
X68516523Y-110695380D01*
X69421285Y-111028714D02*
X69421285Y-111695380D01*
X69183190Y-110647761D02*
X68945095Y-111362047D01*
X69564142Y-111362047D01*
%TO.C,H3*%
X67945095Y-62038380D02*
X67945095Y-61038380D01*
X67945095Y-61514571D02*
X68516523Y-61514571D01*
X68516523Y-62038380D02*
X68516523Y-61038380D01*
X68897476Y-61038380D02*
X69516523Y-61038380D01*
X69183190Y-61419333D01*
X69326047Y-61419333D01*
X69421285Y-61466952D01*
X69468904Y-61514571D01*
X69516523Y-61609809D01*
X69516523Y-61847904D01*
X69468904Y-61943142D01*
X69421285Y-61990761D01*
X69326047Y-62038380D01*
X69040333Y-62038380D01*
X68945095Y-61990761D01*
X68897476Y-61943142D01*
%TO.C,H2*%
X125984095Y-111695380D02*
X125984095Y-110695380D01*
X125984095Y-111171571D02*
X126555523Y-111171571D01*
X126555523Y-111695380D02*
X126555523Y-110695380D01*
X126984095Y-110790619D02*
X127031714Y-110743000D01*
X127126952Y-110695380D01*
X127365047Y-110695380D01*
X127460285Y-110743000D01*
X127507904Y-110790619D01*
X127555523Y-110885857D01*
X127555523Y-110981095D01*
X127507904Y-111123952D01*
X126936476Y-111695380D01*
X127555523Y-111695380D01*
%TO.C,H1*%
X148209095Y-62038380D02*
X148209095Y-61038380D01*
X148209095Y-61514571D02*
X148780523Y-61514571D01*
X148780523Y-62038380D02*
X148780523Y-61038380D01*
X149780523Y-62038380D02*
X149209095Y-62038380D01*
X149494809Y-62038380D02*
X149494809Y-61038380D01*
X149399571Y-61181238D01*
X149304333Y-61276476D01*
X149209095Y-61324095D01*
%TO.C,R11*%
X153444380Y-105417857D02*
X152968190Y-105751190D01*
X153444380Y-105989285D02*
X152444380Y-105989285D01*
X152444380Y-105608333D01*
X152492000Y-105513095D01*
X152539619Y-105465476D01*
X152634857Y-105417857D01*
X152777714Y-105417857D01*
X152872952Y-105465476D01*
X152920571Y-105513095D01*
X152968190Y-105608333D01*
X152968190Y-105989285D01*
X153444380Y-104465476D02*
X153444380Y-105036904D01*
X153444380Y-104751190D02*
X152444380Y-104751190D01*
X152587238Y-104846428D01*
X152682476Y-104941666D01*
X152730095Y-105036904D01*
X153444380Y-103513095D02*
X153444380Y-104084523D01*
X153444380Y-103798809D02*
X152444380Y-103798809D01*
X152587238Y-103894047D01*
X152682476Y-103989285D01*
X152730095Y-104084523D01*
%TO.C,R10*%
X144767380Y-105417857D02*
X144291190Y-105751190D01*
X144767380Y-105989285D02*
X143767380Y-105989285D01*
X143767380Y-105608333D01*
X143815000Y-105513095D01*
X143862619Y-105465476D01*
X143957857Y-105417857D01*
X144100714Y-105417857D01*
X144195952Y-105465476D01*
X144243571Y-105513095D01*
X144291190Y-105608333D01*
X144291190Y-105989285D01*
X144767380Y-104465476D02*
X144767380Y-105036904D01*
X144767380Y-104751190D02*
X143767380Y-104751190D01*
X143910238Y-104846428D01*
X144005476Y-104941666D01*
X144053095Y-105036904D01*
X143767380Y-103846428D02*
X143767380Y-103751190D01*
X143815000Y-103655952D01*
X143862619Y-103608333D01*
X143957857Y-103560714D01*
X144148333Y-103513095D01*
X144386428Y-103513095D01*
X144576904Y-103560714D01*
X144672142Y-103608333D01*
X144719761Y-103655952D01*
X144767380Y-103751190D01*
X144767380Y-103846428D01*
X144719761Y-103941666D01*
X144672142Y-103989285D01*
X144576904Y-104036904D01*
X144386428Y-104084523D01*
X144148333Y-104084523D01*
X143957857Y-104036904D01*
X143862619Y-103989285D01*
X143815000Y-103941666D01*
X143767380Y-103846428D01*
%TO.C,R9*%
X109307333Y-99682380D02*
X108974000Y-99206190D01*
X108735904Y-99682380D02*
X108735904Y-98682380D01*
X109116857Y-98682380D01*
X109212095Y-98730000D01*
X109259714Y-98777619D01*
X109307333Y-98872857D01*
X109307333Y-99015714D01*
X109259714Y-99110952D01*
X109212095Y-99158571D01*
X109116857Y-99206190D01*
X108735904Y-99206190D01*
X109783523Y-99682380D02*
X109974000Y-99682380D01*
X110069238Y-99634761D01*
X110116857Y-99587142D01*
X110212095Y-99444285D01*
X110259714Y-99253809D01*
X110259714Y-98872857D01*
X110212095Y-98777619D01*
X110164476Y-98730000D01*
X110069238Y-98682380D01*
X109878761Y-98682380D01*
X109783523Y-98730000D01*
X109735904Y-98777619D01*
X109688285Y-98872857D01*
X109688285Y-99110952D01*
X109735904Y-99206190D01*
X109783523Y-99253809D01*
X109878761Y-99301428D01*
X110069238Y-99301428D01*
X110164476Y-99253809D01*
X110212095Y-99206190D01*
X110259714Y-99110952D01*
%TO.C,J8*%
X142541666Y-71505380D02*
X142541666Y-72219666D01*
X142494047Y-72362523D01*
X142398809Y-72457761D01*
X142255952Y-72505380D01*
X142160714Y-72505380D01*
X143160714Y-71933952D02*
X143065476Y-71886333D01*
X143017857Y-71838714D01*
X142970238Y-71743476D01*
X142970238Y-71695857D01*
X143017857Y-71600619D01*
X143065476Y-71553000D01*
X143160714Y-71505380D01*
X143351190Y-71505380D01*
X143446428Y-71553000D01*
X143494047Y-71600619D01*
X143541666Y-71695857D01*
X143541666Y-71743476D01*
X143494047Y-71838714D01*
X143446428Y-71886333D01*
X143351190Y-71933952D01*
X143160714Y-71933952D01*
X143065476Y-71981571D01*
X143017857Y-72029190D01*
X142970238Y-72124428D01*
X142970238Y-72314904D01*
X143017857Y-72410142D01*
X143065476Y-72457761D01*
X143160714Y-72505380D01*
X143351190Y-72505380D01*
X143446428Y-72457761D01*
X143494047Y-72410142D01*
X143541666Y-72314904D01*
X143541666Y-72124428D01*
X143494047Y-72029190D01*
X143446428Y-71981571D01*
X143351190Y-71933952D01*
%TO.C,J2*%
X153765380Y-115649333D02*
X154479666Y-115649333D01*
X154622523Y-115696952D01*
X154717761Y-115792190D01*
X154765380Y-115935047D01*
X154765380Y-116030285D01*
X153860619Y-115220761D02*
X153813000Y-115173142D01*
X153765380Y-115077904D01*
X153765380Y-114839809D01*
X153813000Y-114744571D01*
X153860619Y-114696952D01*
X153955857Y-114649333D01*
X154051095Y-114649333D01*
X154193952Y-114696952D01*
X154765380Y-115268380D01*
X154765380Y-114649333D01*
%TO.C,U2*%
D15*
X64207386Y-64716250D02*
X65017330Y-64716250D01*
X65112618Y-64668607D01*
X65160262Y-64620963D01*
X65207906Y-64525675D01*
X65207906Y-64335100D01*
X65160262Y-64239812D01*
X65112618Y-64192169D01*
X65017330Y-64144525D01*
X64207386Y-64144525D01*
X64302673Y-63715730D02*
X64255030Y-63668087D01*
X64207386Y-63572799D01*
X64207386Y-63334580D01*
X64255030Y-63239292D01*
X64302673Y-63191649D01*
X64397961Y-63144005D01*
X64493249Y-63144005D01*
X64636180Y-63191649D01*
X65207906Y-63763374D01*
X65207906Y-63144005D01*
%TO.C,U1*%
X97696976Y-116290214D02*
X97696976Y-117100050D01*
X97744613Y-117195325D01*
X97792251Y-117242963D01*
X97887525Y-117290600D01*
X98078075Y-117290600D01*
X98173350Y-117242963D01*
X98220987Y-117195325D01*
X98268625Y-117100050D01*
X98268625Y-116290214D01*
X99269011Y-117290600D02*
X98697362Y-117290600D01*
X98983186Y-117290600D02*
X98983186Y-116290214D01*
X98887911Y-116433126D01*
X98792637Y-116528401D01*
X98697362Y-116576039D01*
%TO.C,R8*%
D14*
X109307333Y-81394380D02*
X108974000Y-80918190D01*
X108735904Y-81394380D02*
X108735904Y-80394380D01*
X109116857Y-80394380D01*
X109212095Y-80442000D01*
X109259714Y-80489619D01*
X109307333Y-80584857D01*
X109307333Y-80727714D01*
X109259714Y-80822952D01*
X109212095Y-80870571D01*
X109116857Y-80918190D01*
X108735904Y-80918190D01*
X109878761Y-80822952D02*
X109783523Y-80775333D01*
X109735904Y-80727714D01*
X109688285Y-80632476D01*
X109688285Y-80584857D01*
X109735904Y-80489619D01*
X109783523Y-80442000D01*
X109878761Y-80394380D01*
X110069238Y-80394380D01*
X110164476Y-80442000D01*
X110212095Y-80489619D01*
X110259714Y-80584857D01*
X110259714Y-80632476D01*
X110212095Y-80727714D01*
X110164476Y-80775333D01*
X110069238Y-80822952D01*
X109878761Y-80822952D01*
X109783523Y-80870571D01*
X109735904Y-80918190D01*
X109688285Y-81013428D01*
X109688285Y-81203904D01*
X109735904Y-81299142D01*
X109783523Y-81346761D01*
X109878761Y-81394380D01*
X110069238Y-81394380D01*
X110164476Y-81346761D01*
X110212095Y-81299142D01*
X110259714Y-81203904D01*
X110259714Y-81013428D01*
X110212095Y-80918190D01*
X110164476Y-80870571D01*
X110069238Y-80822952D01*
%TO.C,R7*%
X139638380Y-86656666D02*
X139162190Y-86990000D01*
X139638380Y-87228095D02*
X138638380Y-87228095D01*
X138638380Y-86847142D01*
X138686000Y-86751904D01*
X138733619Y-86704285D01*
X138828857Y-86656666D01*
X138971714Y-86656666D01*
X139066952Y-86704285D01*
X139114571Y-86751904D01*
X139162190Y-86847142D01*
X139162190Y-87228095D01*
X138638380Y-86323333D02*
X138638380Y-85656666D01*
X139638380Y-86085238D01*
%TO.C,R6*%
X140490380Y-86653666D02*
X140014190Y-86987000D01*
X140490380Y-87225095D02*
X139490380Y-87225095D01*
X139490380Y-86844142D01*
X139538000Y-86748904D01*
X139585619Y-86701285D01*
X139680857Y-86653666D01*
X139823714Y-86653666D01*
X139918952Y-86701285D01*
X139966571Y-86748904D01*
X140014190Y-86844142D01*
X140014190Y-87225095D01*
X139490380Y-85796523D02*
X139490380Y-85987000D01*
X139538000Y-86082238D01*
X139585619Y-86129857D01*
X139728476Y-86225095D01*
X139918952Y-86272714D01*
X140299904Y-86272714D01*
X140395142Y-86225095D01*
X140442761Y-86177476D01*
X140490380Y-86082238D01*
X140490380Y-85891761D01*
X140442761Y-85796523D01*
X140395142Y-85748904D01*
X140299904Y-85701285D01*
X140061809Y-85701285D01*
X139966571Y-85748904D01*
X139918952Y-85796523D01*
X139871333Y-85891761D01*
X139871333Y-86082238D01*
X139918952Y-86177476D01*
X139966571Y-86225095D01*
X140061809Y-86272714D01*
%TO.C,R5*%
X140617380Y-98210666D02*
X140141190Y-98544000D01*
X140617380Y-98782095D02*
X139617380Y-98782095D01*
X139617380Y-98401142D01*
X139665000Y-98305904D01*
X139712619Y-98258285D01*
X139807857Y-98210666D01*
X139950714Y-98210666D01*
X140045952Y-98258285D01*
X140093571Y-98305904D01*
X140141190Y-98401142D01*
X140141190Y-98782095D01*
X139617380Y-97305904D02*
X139617380Y-97782095D01*
X140093571Y-97829714D01*
X140045952Y-97782095D01*
X139998333Y-97686857D01*
X139998333Y-97448761D01*
X140045952Y-97353523D01*
X140093571Y-97305904D01*
X140188809Y-97258285D01*
X140426904Y-97258285D01*
X140522142Y-97305904D01*
X140569761Y-97353523D01*
X140617380Y-97448761D01*
X140617380Y-97686857D01*
X140569761Y-97782095D01*
X140522142Y-97829714D01*
%TO.C,R4*%
X143306380Y-107203666D02*
X142830190Y-107537000D01*
X143306380Y-107775095D02*
X142306380Y-107775095D01*
X142306380Y-107394142D01*
X142354000Y-107298904D01*
X142401619Y-107251285D01*
X142496857Y-107203666D01*
X142639714Y-107203666D01*
X142734952Y-107251285D01*
X142782571Y-107298904D01*
X142830190Y-107394142D01*
X142830190Y-107775095D01*
X142639714Y-106346523D02*
X143306380Y-106346523D01*
X142258761Y-106584619D02*
X142973047Y-106822714D01*
X142973047Y-106203666D01*
%TO.C,R3*%
X109307333Y-98326380D02*
X108974000Y-97850190D01*
X108735904Y-98326380D02*
X108735904Y-97326380D01*
X109116857Y-97326380D01*
X109212095Y-97374000D01*
X109259714Y-97421619D01*
X109307333Y-97516857D01*
X109307333Y-97659714D01*
X109259714Y-97754952D01*
X109212095Y-97802571D01*
X109116857Y-97850190D01*
X108735904Y-97850190D01*
X109640666Y-97326380D02*
X110259714Y-97326380D01*
X109926380Y-97707333D01*
X110069238Y-97707333D01*
X110164476Y-97754952D01*
X110212095Y-97802571D01*
X110259714Y-97897809D01*
X110259714Y-98135904D01*
X110212095Y-98231142D01*
X110164476Y-98278761D01*
X110069238Y-98326380D01*
X109783523Y-98326380D01*
X109688285Y-98278761D01*
X109640666Y-98231142D01*
%TO.C,R2*%
X109307333Y-92230380D02*
X108974000Y-91754190D01*
X108735904Y-92230380D02*
X108735904Y-91230380D01*
X109116857Y-91230380D01*
X109212095Y-91278000D01*
X109259714Y-91325619D01*
X109307333Y-91420857D01*
X109307333Y-91563714D01*
X109259714Y-91658952D01*
X109212095Y-91706571D01*
X109116857Y-91754190D01*
X108735904Y-91754190D01*
X109688285Y-91325619D02*
X109735904Y-91278000D01*
X109831142Y-91230380D01*
X110069238Y-91230380D01*
X110164476Y-91278000D01*
X110212095Y-91325619D01*
X110259714Y-91420857D01*
X110259714Y-91516095D01*
X110212095Y-91658952D01*
X109640666Y-92230380D01*
X110259714Y-92230380D01*
%TO.C,R1*%
X141252380Y-66206666D02*
X140776190Y-66540000D01*
X141252380Y-66778095D02*
X140252380Y-66778095D01*
X140252380Y-66397142D01*
X140300000Y-66301904D01*
X140347619Y-66254285D01*
X140442857Y-66206666D01*
X140585714Y-66206666D01*
X140680952Y-66254285D01*
X140728571Y-66301904D01*
X140776190Y-66397142D01*
X140776190Y-66778095D01*
X141252380Y-65254285D02*
X141252380Y-65825714D01*
X141252380Y-65540000D02*
X140252380Y-65540000D01*
X140395238Y-65635238D01*
X140490476Y-65730476D01*
X140538095Y-65825714D01*
%TO.C,Q1*%
X113442761Y-80307619D02*
X113347523Y-80260000D01*
X113252285Y-80164761D01*
X113109428Y-80021904D01*
X113014190Y-79974285D01*
X112918952Y-79974285D01*
X112966571Y-80212380D02*
X112871333Y-80164761D01*
X112776095Y-80069523D01*
X112728476Y-79879047D01*
X112728476Y-79545714D01*
X112776095Y-79355238D01*
X112871333Y-79260000D01*
X112966571Y-79212380D01*
X113157047Y-79212380D01*
X113252285Y-79260000D01*
X113347523Y-79355238D01*
X113395142Y-79545714D01*
X113395142Y-79879047D01*
X113347523Y-80069523D01*
X113252285Y-80164761D01*
X113157047Y-80212380D01*
X112966571Y-80212380D01*
X114347523Y-80212380D02*
X113776095Y-80212380D01*
X114061809Y-80212380D02*
X114061809Y-79212380D01*
X113966571Y-79355238D01*
X113871333Y-79450476D01*
X113776095Y-79498095D01*
%TO.C,K1*%
D15*
X135526263Y-77170534D02*
X134526169Y-77170534D01*
X135526263Y-76599052D02*
X134954781Y-77027664D01*
X134526169Y-76599052D02*
X135097651Y-77170534D01*
X135526263Y-75646581D02*
X135526263Y-76218064D01*
X135526263Y-75932323D02*
X134526169Y-75932323D01*
X134669040Y-76027570D01*
X134764287Y-76122817D01*
X134811910Y-76218064D01*
%TO.C,J6*%
D14*
X117570380Y-66373333D02*
X118284666Y-66373333D01*
X118427523Y-66420952D01*
X118522761Y-66516190D01*
X118570380Y-66659047D01*
X118570380Y-66754285D01*
X117570380Y-65468571D02*
X117570380Y-65659047D01*
X117618000Y-65754285D01*
X117665619Y-65801904D01*
X117808476Y-65897142D01*
X117998952Y-65944761D01*
X118379904Y-65944761D01*
X118475142Y-65897142D01*
X118522761Y-65849523D01*
X118570380Y-65754285D01*
X118570380Y-65563809D01*
X118522761Y-65468571D01*
X118475142Y-65420952D01*
X118379904Y-65373333D01*
X118141809Y-65373333D01*
X118046571Y-65420952D01*
X117998952Y-65468571D01*
X117951333Y-65563809D01*
X117951333Y-65754285D01*
X117998952Y-65849523D01*
X118046571Y-65897142D01*
X118141809Y-65944761D01*
%TO.C,J5*%
X114760380Y-66373333D02*
X115474666Y-66373333D01*
X115617523Y-66420952D01*
X115712761Y-66516190D01*
X115760380Y-66659047D01*
X115760380Y-66754285D01*
X114760380Y-65420952D02*
X114760380Y-65897142D01*
X115236571Y-65944761D01*
X115188952Y-65897142D01*
X115141333Y-65801904D01*
X115141333Y-65563809D01*
X115188952Y-65468571D01*
X115236571Y-65420952D01*
X115331809Y-65373333D01*
X115569904Y-65373333D01*
X115665142Y-65420952D01*
X115712761Y-65468571D01*
X115760380Y-65563809D01*
X115760380Y-65801904D01*
X115712761Y-65897142D01*
X115665142Y-65944761D01*
%TO.C,J4*%
X141271666Y-101604380D02*
X141271666Y-102318666D01*
X141224047Y-102461523D01*
X141128809Y-102556761D01*
X140985952Y-102604380D01*
X140890714Y-102604380D01*
X142176428Y-101937714D02*
X142176428Y-102604380D01*
X141938333Y-101556761D02*
X141700238Y-102271047D01*
X142319285Y-102271047D01*
%TO.C,J3*%
X50970380Y-114379333D02*
X51684666Y-114379333D01*
X51827523Y-114426952D01*
X51922761Y-114522190D01*
X51970380Y-114665047D01*
X51970380Y-114760285D01*
X50970380Y-113998380D02*
X50970380Y-113379333D01*
X51351333Y-113712666D01*
X51351333Y-113569809D01*
X51398952Y-113474571D01*
X51446571Y-113426952D01*
X51541809Y-113379333D01*
X51779904Y-113379333D01*
X51875142Y-113426952D01*
X51922761Y-113474571D01*
X51970380Y-113569809D01*
X51970380Y-113855523D01*
X51922761Y-113950761D01*
X51875142Y-113998380D01*
%TO.C,J1*%
D16*
X125874666Y-98038523D02*
X125874666Y-98945666D01*
X125814190Y-99127095D01*
X125693238Y-99248047D01*
X125511809Y-99308523D01*
X125390857Y-99308523D01*
X127144666Y-99308523D02*
X126418952Y-99308523D01*
X126781809Y-99308523D02*
X126781809Y-98038523D01*
X126660857Y-98219952D01*
X126539904Y-98340904D01*
X126418952Y-98401380D01*
%TO.C,D3*%
D14*
X133732380Y-66778095D02*
X132732380Y-66778095D01*
X132732380Y-66540000D01*
X132780000Y-66397142D01*
X132875238Y-66301904D01*
X132970476Y-66254285D01*
X133160952Y-66206666D01*
X133303809Y-66206666D01*
X133494285Y-66254285D01*
X133589523Y-66301904D01*
X133684761Y-66397142D01*
X133732380Y-66540000D01*
X133732380Y-66778095D01*
X132732380Y-65873333D02*
X132732380Y-65254285D01*
X133113333Y-65587619D01*
X133113333Y-65444761D01*
X133160952Y-65349523D01*
X133208571Y-65301904D01*
X133303809Y-65254285D01*
X133541904Y-65254285D01*
X133637142Y-65301904D01*
X133684761Y-65349523D01*
X133732380Y-65444761D01*
X133732380Y-65730476D01*
X133684761Y-65825714D01*
X133637142Y-65873333D01*
X133362380Y-61221904D02*
X132362380Y-61221904D01*
X133362380Y-60650476D02*
X132790952Y-61079047D01*
X132362380Y-60650476D02*
X132933809Y-61221904D01*
%TO.C,D2*%
X137542380Y-66778095D02*
X136542380Y-66778095D01*
X136542380Y-66540000D01*
X136590000Y-66397142D01*
X136685238Y-66301904D01*
X136780476Y-66254285D01*
X136970952Y-66206666D01*
X137113809Y-66206666D01*
X137304285Y-66254285D01*
X137399523Y-66301904D01*
X137494761Y-66397142D01*
X137542380Y-66540000D01*
X137542380Y-66778095D01*
X136637619Y-65825714D02*
X136590000Y-65778095D01*
X136542380Y-65682857D01*
X136542380Y-65444761D01*
X136590000Y-65349523D01*
X136637619Y-65301904D01*
X136732857Y-65254285D01*
X136828095Y-65254285D01*
X136970952Y-65301904D01*
X137542380Y-65873333D01*
X137542380Y-65254285D01*
X137172380Y-61221904D02*
X136172380Y-61221904D01*
X137172380Y-60650476D02*
X136600952Y-61079047D01*
X136172380Y-60650476D02*
X136743809Y-61221904D01*
%TO.C,D1*%
X144112380Y-77700095D02*
X143112380Y-77700095D01*
X143112380Y-77462000D01*
X143160000Y-77319142D01*
X143255238Y-77223904D01*
X143350476Y-77176285D01*
X143540952Y-77128666D01*
X143683809Y-77128666D01*
X143874285Y-77176285D01*
X143969523Y-77223904D01*
X144064761Y-77319142D01*
X144112380Y-77462000D01*
X144112380Y-77700095D01*
X144112380Y-76176285D02*
X144112380Y-76747714D01*
X144112380Y-76462000D02*
X143112380Y-76462000D01*
X143255238Y-76557238D01*
X143350476Y-76652476D01*
X143398095Y-76747714D01*
%TO.C,C1*%
X105517333Y-80957142D02*
X105469714Y-81004761D01*
X105326857Y-81052380D01*
X105231619Y-81052380D01*
X105088761Y-81004761D01*
X104993523Y-80909523D01*
X104945904Y-80814285D01*
X104898285Y-80623809D01*
X104898285Y-80480952D01*
X104945904Y-80290476D01*
X104993523Y-80195238D01*
X105088761Y-80100000D01*
X105231619Y-80052380D01*
X105326857Y-80052380D01*
X105469714Y-80100000D01*
X105517333Y-80147619D01*
X106469714Y-81052380D02*
X105898285Y-81052380D01*
X106184000Y-81052380D02*
X106184000Y-80052380D01*
X106088761Y-80195238D01*
X105993523Y-80290476D01*
X105898285Y-80338095D01*
%TO.C,BZ1*%
X108710047Y-105123571D02*
X108852904Y-105171190D01*
X108900523Y-105218809D01*
X108948142Y-105314047D01*
X108948142Y-105456904D01*
X108900523Y-105552142D01*
X108852904Y-105599761D01*
X108757666Y-105647380D01*
X108376714Y-105647380D01*
X108376714Y-104647380D01*
X108710047Y-104647380D01*
X108805285Y-104695000D01*
X108852904Y-104742619D01*
X108900523Y-104837857D01*
X108900523Y-104933095D01*
X108852904Y-105028333D01*
X108805285Y-105075952D01*
X108710047Y-105123571D01*
X108376714Y-105123571D01*
X109281476Y-104647380D02*
X109948142Y-104647380D01*
X109281476Y-105647380D01*
X109948142Y-105647380D01*
X110852904Y-105647380D02*
X110281476Y-105647380D01*
X110567190Y-105647380D02*
X110567190Y-104647380D01*
X110471952Y-104790238D01*
X110376714Y-104885476D01*
X110281476Y-104933095D01*
X105400047Y-109926428D02*
X106161952Y-109926428D01*
X105781000Y-110307380D02*
X105781000Y-109545476D01*
%TD*%
M02*
